<svg width="66" height="32" viewBox="0 0 66 32" fill="none" xmlns="http://www.w3.org/2000/svg">
<path d="M14.1065 7.06528V5.17875L5.41632 5.1599L5.39748 18.9302C5.39748 19.0235 5.39748 19.1261 5.4023 19.2195C5.58464 22.012 7.05082 23.8376 8.94173 25.3551C8.96058 25.3691 8.96496 25.3735 8.96978 25.3783L9.72632 25.8964L10.4872 25.3827C10.4921 25.3779 10.5061 25.3687 10.5245 25.359C10.5245 25.359 10.5245 25.359 10.5293 25.3546C11.2346 24.8225 12.0797 24.0002 12.6166 23.2533C13.3872 22.1886 14.0596 20.7694 14.0876 19.0227L14.1016 12.6582L9.90384 12.6534L12.1871 10.9256C13.392 10.0068 14.1065 8.58275 14.1065 7.06528ZM11.3981 14.3541L11.3933 18.9394C11.3884 20.331 10.7533 21.4378 9.74473 22.4648C8.73134 21.4378 8.10585 20.3218 8.10103 18.935L8.10585 14.3497L11.3981 14.3541ZM10.4456 9.93233L8.11112 12.2857L8.11594 7.60222L11.4125 7.60705C11.4073 8.47536 11.0619 9.31123 10.4456 9.93233Z" fill="#00F7FF"/>
<path d="M0 18.921C0 20.854 0.438759 22.7265 1.30751 24.4683C2.6571 27.4103 6.00499 30.1932 7.91475 31.0944L9.72632 32L11.5379 31.0944C13.4617 30.1932 16.8096 27.4147 18.164 24.4872C19.0371 22.7409 19.4899 20.8728 19.4899 18.9398L19.5039 12.6499L16.8052 12.6451L16.7912 18.935C16.8192 23.8332 13.0839 27.3122 9.72632 28.9791C8.06421 28.1524 5.06611 26.1212 3.72134 23.259C3.03975 21.8862 2.69392 20.4248 2.69874 18.9166L2.72197 2.46161L16.8096 2.48045L16.8048 7.42996L18.313 6.29077C19.0647 5.72095 19.5083 4.83379 19.5083 3.89535L19.5223 0.061803L0.0319999 0.0289291L0 18.921Z" fill="#00F7FF"/>
<path d="M34.278 6.71945C35.3615 6.1172 36.0711 5.06172 36.0711 3.66085C36.0759 1.38202 34.2083 0.00920468 31.897 0.00920468L26.3216 0L26.3167 2.6194L29.1137 2.62422L27.1105 4.1373C26.6065 4.51557 26.3124 5.10862 26.3075 5.74375L26.2935 13.9995L32.9288 14.0087C35.0954 14.0135 36.9022 12.2716 36.8978 10.105C36.9026 8.30266 35.9637 7.1398 34.278 6.71945ZM29.1978 2.62466L31.8922 2.62948C32.7513 2.62948 33.4517 3.29266 33.4517 4.14695C33.4517 5.00123 32.7513 5.65038 31.8874 5.65038L29.193 5.64556L29.1978 2.62466ZM32.7232 11.3889L29.1838 11.3841L29.1886 8.26496L32.728 8.26978C33.5872 8.26978 34.2876 8.97022 34.2876 9.83415C34.2876 10.6884 33.5872 11.3889 32.7232 11.3889Z" fill="#FBFBFB"/>
<path d="M41.3665 11.3985L41.3708 8.27943L46.7688 8.28863L46.7736 5.66923L41.3757 5.66003L41.3805 2.64351L47.5161 2.65271L47.5209 0.0333124L38.5042 0.0192864L38.4994 2.63869L41.2963 2.64351L39.2932 4.15659C38.7891 4.53486 38.495 5.12791 38.4902 5.76303L38.4762 14.0188L47.5722 14.0328L47.577 11.4134L41.3665 11.3985Z" fill="#FBFBFB"/>
<path d="M54.3381 2.66192H55.0526L53.0494 4.175C52.5449 4.55327 52.2508 5.14632 52.2464 5.78144L52.2324 14.0372L55.1135 14.042L55.1323 2.66279L58.6481 2.66762L58.6529 0.0482155L48.7399 0.03418902L48.7351 2.65359L54.3381 2.66192Z" fill="#FBFBFB"/>
<path d="M31.9575 27.4984C30.099 27.4936 28.6609 25.7943 28.6657 23.0109V22.9504C28.6705 20.2329 29.8097 18.4958 32.2796 18.5002C35.5811 18.505 36.5195 21.6802 36.5195 21.6802L36.5243 17.6691C35.4456 16.5672 34.1057 15.8058 32.028 15.8058C28.3295 15.801 25.6869 18.6777 25.6772 22.9171V23.0946C25.6728 27.3718 28.1476 30.1967 31.8225 30.2016C33.961 30.206 35.301 29.3052 36.5616 28.0069L36.5664 24.1361C36.5756 24.1273 35.1936 27.5033 31.9575 27.4984Z" fill="#FBFBFB"/>
<path d="M38.4849 16.0114L38.4648 30.0056L41.3643 30.01L41.3849 16.0158L38.4849 16.0114Z" fill="#FBFBFB"/>
<path d="M62.6171 16.0443L59.8338 21.5404L57.0789 16.0351L53.8007 16.0302L58.3444 24.5144L58.3395 30.0337L61.2394 30.0385L61.2443 24.4819L65.8155 16.0491L62.6171 16.0443Z" fill="#FBFBFB"/>
<path d="M43.2201 18.6361L48.8188 18.6457H49.5332L47.5301 20.1588C47.0261 20.537 46.7319 21.1301 46.7271 21.7652L46.7131 30.0205L49.5942 30.0254L49.6126 18.6461L53.1288 18.651L53.1336 16.0316L43.2206 16.0175V18.6361H43.2201Z" fill="#FBFBFB"/>
</svg>
